<mxfile host="app.diagrams.net" modified="2024-02-29T11:47:43.330Z" agent="Mozilla/5.0 (Windows NT 10.0; Win64; x64) AppleWebKit/537.36 (KHTML, like Gecko) Chrome/121.0.0.0 Safari/537.36 OPR/107.0.0.0 (Edition std-1)" etag="r3K02ITPLPKPUlSZuRyV" version="23.1.8" type="github">
  <diagram name="Page-1" id="zmict07narDk8DJ9savk">
    <mxGraphModel dx="1835" dy="1042" grid="1" gridSize="10" guides="1" tooltips="1" connect="1" arrows="1" fold="1" page="1" pageScale="1" pageWidth="1654" pageHeight="1169" math="0" shadow="0">
      <root>
        <mxCell id="0" />
        <mxCell id="1" parent="0" />
        <mxCell id="Wzt4cAq1OgjSs-nBdCbO-63" value="Student" style="rounded=0;whiteSpace=wrap;html=1;" vertex="1" parent="1">
          <mxGeometry x="210" y="155" width="120" height="60" as="geometry" />
        </mxCell>
        <mxCell id="Wzt4cAq1OgjSs-nBdCbO-64" value="Activity" style="rounded=0;whiteSpace=wrap;html=1;" vertex="1" parent="1">
          <mxGeometry x="750" y="130" width="120" height="60" as="geometry" />
        </mxCell>
        <mxCell id="Wzt4cAq1OgjSs-nBdCbO-65" value="Building" style="rounded=0;whiteSpace=wrap;html=1;" vertex="1" parent="1">
          <mxGeometry x="110" y="545" width="120" height="60" as="geometry" />
        </mxCell>
        <mxCell id="Wzt4cAq1OgjSs-nBdCbO-66" value="Drink" style="rounded=0;whiteSpace=wrap;html=1;" vertex="1" parent="1">
          <mxGeometry x="600" y="640" width="120" height="60" as="geometry" />
        </mxCell>
        <mxCell id="Wzt4cAq1OgjSs-nBdCbO-67" value="last_name" style="ellipse;whiteSpace=wrap;html=1;" vertex="1" parent="1">
          <mxGeometry x="200" y="250" width="120" height="60" as="geometry" />
        </mxCell>
        <mxCell id="Wzt4cAq1OgjSs-nBdCbO-68" value="phone_number" style="ellipse;whiteSpace=wrap;html=1;" vertex="1" parent="1">
          <mxGeometry x="50" y="150" width="110" height="65" as="geometry" />
        </mxCell>
        <mxCell id="Wzt4cAq1OgjSs-nBdCbO-69" value="class" style="ellipse;whiteSpace=wrap;html=1;" vertex="1" parent="1">
          <mxGeometry x="270" y="20" width="110" height="70" as="geometry" />
        </mxCell>
        <mxCell id="Wzt4cAq1OgjSs-nBdCbO-70" value="student_number" style="ellipse;whiteSpace=wrap;html=1;" vertex="1" parent="1">
          <mxGeometry x="119.5" y="40" width="101" height="70" as="geometry" />
        </mxCell>
        <mxCell id="Wzt4cAq1OgjSs-nBdCbO-71" value="first_name" style="ellipse;whiteSpace=wrap;html=1;" vertex="1" parent="1">
          <mxGeometry x="80" y="230" width="100" height="60" as="geometry" />
        </mxCell>
        <mxCell id="Wzt4cAq1OgjSs-nBdCbO-72" value="" style="endArrow=none;html=1;rounded=0;entryX=0.644;entryY=1.034;entryDx=0;entryDy=0;entryPerimeter=0;exitX=0.5;exitY=0;exitDx=0;exitDy=0;" edge="1" parent="1" source="Wzt4cAq1OgjSs-nBdCbO-67" target="Wzt4cAq1OgjSs-nBdCbO-63">
          <mxGeometry width="50" height="50" relative="1" as="geometry">
            <mxPoint x="250" y="320" as="sourcePoint" />
            <mxPoint x="300" y="270" as="targetPoint" />
          </mxGeometry>
        </mxCell>
        <mxCell id="Wzt4cAq1OgjSs-nBdCbO-73" value="" style="endArrow=none;html=1;rounded=0;exitX=1;exitY=0.5;exitDx=0;exitDy=0;entryX=0;entryY=1;entryDx=0;entryDy=0;" edge="1" parent="1" source="Wzt4cAq1OgjSs-nBdCbO-71" target="Wzt4cAq1OgjSs-nBdCbO-63">
          <mxGeometry width="50" height="50" relative="1" as="geometry">
            <mxPoint x="170" y="200" as="sourcePoint" />
            <mxPoint x="220" y="150" as="targetPoint" />
          </mxGeometry>
        </mxCell>
        <mxCell id="Wzt4cAq1OgjSs-nBdCbO-74" value="" style="endArrow=none;html=1;rounded=0;entryX=0;entryY=0.5;entryDx=0;entryDy=0;exitX=0.979;exitY=0.652;exitDx=0;exitDy=0;exitPerimeter=0;" edge="1" parent="1" source="Wzt4cAq1OgjSs-nBdCbO-68" target="Wzt4cAq1OgjSs-nBdCbO-63">
          <mxGeometry width="50" height="50" relative="1" as="geometry">
            <mxPoint x="170" y="190" as="sourcePoint" />
            <mxPoint x="220" y="140" as="targetPoint" />
          </mxGeometry>
        </mxCell>
        <mxCell id="Wzt4cAq1OgjSs-nBdCbO-75" value="" style="endArrow=none;html=1;rounded=0;" edge="1" parent="1" target="Wzt4cAq1OgjSs-nBdCbO-70">
          <mxGeometry width="50" height="50" relative="1" as="geometry">
            <mxPoint x="210" y="150" as="sourcePoint" />
            <mxPoint x="270" y="110" as="targetPoint" />
          </mxGeometry>
        </mxCell>
        <mxCell id="Wzt4cAq1OgjSs-nBdCbO-76" value="" style="endArrow=none;html=1;rounded=0;entryX=0;entryY=1;entryDx=0;entryDy=0;exitX=0.5;exitY=0;exitDx=0;exitDy=0;" edge="1" parent="1" source="Wzt4cAq1OgjSs-nBdCbO-63" target="Wzt4cAq1OgjSs-nBdCbO-69">
          <mxGeometry width="50" height="50" relative="1" as="geometry">
            <mxPoint x="330" y="250" as="sourcePoint" />
            <mxPoint x="380" y="200" as="targetPoint" />
          </mxGeometry>
        </mxCell>
        <mxCell id="Wzt4cAq1OgjSs-nBdCbO-77" value="" style="endArrow=none;html=1;rounded=0;exitX=0.447;exitY=1.033;exitDx=0;exitDy=0;exitPerimeter=0;entryX=0.5;entryY=0;entryDx=0;entryDy=0;" edge="1" parent="1" source="Wzt4cAq1OgjSs-nBdCbO-64" target="Wzt4cAq1OgjSs-nBdCbO-78">
          <mxGeometry width="50" height="50" relative="1" as="geometry">
            <mxPoint x="570" y="425.04" as="sourcePoint" />
            <mxPoint x="630.4633273971799" y="420.0013893835683" as="targetPoint" />
          </mxGeometry>
        </mxCell>
        <mxCell id="Wzt4cAq1OgjSs-nBdCbO-78" value="name" style="ellipse;whiteSpace=wrap;html=1;" vertex="1" parent="1">
          <mxGeometry x="792" y="280" width="110" height="60" as="geometry" />
        </mxCell>
        <mxCell id="Wzt4cAq1OgjSs-nBdCbO-79" value="name" style="ellipse;whiteSpace=wrap;html=1;" vertex="1" parent="1">
          <mxGeometry x="240" y="650" width="120" height="80" as="geometry" />
        </mxCell>
        <mxCell id="Wzt4cAq1OgjSs-nBdCbO-80" value="floor" style="ellipse;whiteSpace=wrap;html=1;" vertex="1" parent="1">
          <mxGeometry x="90" y="670" width="120" height="80" as="geometry" />
        </mxCell>
        <mxCell id="Wzt4cAq1OgjSs-nBdCbO-81" value="" style="endArrow=none;html=1;rounded=0;exitX=0.5;exitY=1;exitDx=0;exitDy=0;" edge="1" parent="1" source="Wzt4cAq1OgjSs-nBdCbO-65">
          <mxGeometry width="50" height="50" relative="1" as="geometry">
            <mxPoint x="300" y="570" as="sourcePoint" />
            <mxPoint x="150" y="670" as="targetPoint" />
          </mxGeometry>
        </mxCell>
        <mxCell id="Wzt4cAq1OgjSs-nBdCbO-82" value="" style="endArrow=none;html=1;rounded=0;" edge="1" parent="1" source="Wzt4cAq1OgjSs-nBdCbO-65" target="Wzt4cAq1OgjSs-nBdCbO-79">
          <mxGeometry width="50" height="50" relative="1" as="geometry">
            <mxPoint x="70" y="540" as="sourcePoint" />
            <mxPoint x="120" y="490" as="targetPoint" />
          </mxGeometry>
        </mxCell>
        <mxCell id="Wzt4cAq1OgjSs-nBdCbO-83" value="name" style="ellipse;whiteSpace=wrap;html=1;" vertex="1" parent="1">
          <mxGeometry x="550" y="490" width="120" height="80" as="geometry" />
        </mxCell>
        <mxCell id="Wzt4cAq1OgjSs-nBdCbO-84" value="vat" style="ellipse;whiteSpace=wrap;html=1;" vertex="1" parent="1">
          <mxGeometry x="720" y="510" width="120" height="80" as="geometry" />
        </mxCell>
        <mxCell id="Wzt4cAq1OgjSs-nBdCbO-85" value="" style="endArrow=none;html=1;rounded=0;exitX=0.5;exitY=0;exitDx=0;exitDy=0;entryX=0.5;entryY=1;entryDx=0;entryDy=0;" edge="1" parent="1" source="Wzt4cAq1OgjSs-nBdCbO-66" target="Wzt4cAq1OgjSs-nBdCbO-83">
          <mxGeometry width="50" height="50" relative="1" as="geometry">
            <mxPoint x="510" y="580" as="sourcePoint" />
            <mxPoint x="560" y="530" as="targetPoint" />
          </mxGeometry>
        </mxCell>
        <mxCell id="Wzt4cAq1OgjSs-nBdCbO-86" value="" style="endArrow=none;html=1;rounded=0;entryX=0;entryY=1;entryDx=0;entryDy=0;exitX=0.75;exitY=0;exitDx=0;exitDy=0;" edge="1" parent="1" source="Wzt4cAq1OgjSs-nBdCbO-66" target="Wzt4cAq1OgjSs-nBdCbO-84">
          <mxGeometry width="50" height="50" relative="1" as="geometry">
            <mxPoint x="510" y="580" as="sourcePoint" />
            <mxPoint x="560" y="530" as="targetPoint" />
          </mxGeometry>
        </mxCell>
        <mxCell id="Wzt4cAq1OgjSs-nBdCbO-87" value="Lecturer" style="rounded=0;whiteSpace=wrap;html=1;" vertex="1" parent="1">
          <mxGeometry x="1260" y="375" width="120" height="60" as="geometry" />
        </mxCell>
        <mxCell id="Wzt4cAq1OgjSs-nBdCbO-88" value="last_name" style="ellipse;whiteSpace=wrap;html=1;" vertex="1" parent="1">
          <mxGeometry x="1250" y="470" width="120" height="60" as="geometry" />
        </mxCell>
        <mxCell id="Wzt4cAq1OgjSs-nBdCbO-89" value="phone_number" style="ellipse;whiteSpace=wrap;html=1;" vertex="1" parent="1">
          <mxGeometry x="1100" y="370" width="110" height="65" as="geometry" />
        </mxCell>
        <mxCell id="Wzt4cAq1OgjSs-nBdCbO-90" value="first_name" style="ellipse;whiteSpace=wrap;html=1;" vertex="1" parent="1">
          <mxGeometry x="1130" y="450" width="100" height="60" as="geometry" />
        </mxCell>
        <mxCell id="Wzt4cAq1OgjSs-nBdCbO-91" value="" style="endArrow=none;html=1;rounded=0;entryX=0.644;entryY=1.034;entryDx=0;entryDy=0;entryPerimeter=0;exitX=0.5;exitY=0;exitDx=0;exitDy=0;" edge="1" parent="1" source="Wzt4cAq1OgjSs-nBdCbO-88" target="Wzt4cAq1OgjSs-nBdCbO-87">
          <mxGeometry width="50" height="50" relative="1" as="geometry">
            <mxPoint x="1300" y="540" as="sourcePoint" />
            <mxPoint x="1350" y="490" as="targetPoint" />
          </mxGeometry>
        </mxCell>
        <mxCell id="Wzt4cAq1OgjSs-nBdCbO-92" value="" style="endArrow=none;html=1;rounded=0;exitX=1;exitY=0.5;exitDx=0;exitDy=0;" edge="1" parent="1" source="Wzt4cAq1OgjSs-nBdCbO-90" target="Wzt4cAq1OgjSs-nBdCbO-87">
          <mxGeometry width="50" height="50" relative="1" as="geometry">
            <mxPoint x="1220" y="420" as="sourcePoint" />
            <mxPoint x="1270" y="370" as="targetPoint" />
          </mxGeometry>
        </mxCell>
        <mxCell id="Wzt4cAq1OgjSs-nBdCbO-93" value="" style="endArrow=none;html=1;rounded=0;entryX=0;entryY=0.5;entryDx=0;entryDy=0;exitX=0.979;exitY=0.652;exitDx=0;exitDy=0;exitPerimeter=0;" edge="1" parent="1" source="Wzt4cAq1OgjSs-nBdCbO-89" target="Wzt4cAq1OgjSs-nBdCbO-87">
          <mxGeometry width="50" height="50" relative="1" as="geometry">
            <mxPoint x="1220" y="410" as="sourcePoint" />
            <mxPoint x="1270" y="360" as="targetPoint" />
          </mxGeometry>
        </mxCell>
      </root>
    </mxGraphModel>
  </diagram>
</mxfile>
